# AST/ASF file generated using VICON BodyLanguage
# -----------------------------------------------
:version 1.10
:name VICON
:units
  mass 1.0
  length 0.45
  angle deg
:documentation
   .ast/.asf automatically generated from VICON data using
   VICON BodyBuilder and BodyLanguage model FoxedUp or BRILLIANT.MOD
:root
   order TX TY TZ RX RY RZ
   axis XYZ
   position 0 0 0  
   orientation 0 0 0 
:bonedata
  begin
     id 1 
     name lhipjoint
     direction 0.561145 -0.797705 0.220866 
     length 2.46425 
     axis 0 0 0  XYZ
  end
  begin
     id 2 
     name lfemur
     direction 0.34202 -0.939693 0  
     length 7.95556  
     axis 0 0 20  XYZ
    dof rx ry rz
    limits (-160.0 20.0)
           (-70.0 70.0)
           (-60.0 70.0)
  end
  begin
     id 3 
     name ltibia
     direction 0.34202 -0.939693 0   
     length 7.9832   
     axis 0 0 20   XYZ
    dof rx
    limits (-10.0 170.0)
  end
  begin
     id 4 
     name lfoot
     direction 0.0723927 -0.198897 0.977343   
     length 2.23085   
     axis -90 7.62852e-016 20   XYZ
    dof rx rz
    limits (-45.0 90.0)
           (-70.0 20.0)
  end
  begin
     id 5 
     name ltoes
     direction 1.53826e-011 -4.21988e-011 1   
     length 1.12127   
     axis -90 7.62852e-016 20   XYZ
    dof rx
    limits (-90.0 20.0)
  end
  begin
     id 6 
     name rhipjoint
     direction -0.610499 -0.763299 0.21134   
     length 2.57533  
     axis 0 0 0  XYZ 
  end
  begin
     id 7 
     name rfemur
     direction -0.34202 -0.939693 0   
     length 8.65257   
     axis 0 0 -20   XYZ
    dof rx ry rz
    limits (-160.0 20.0)
           (-70.0 70.0)
           (-70.0 60.0)
  end
  begin
     id 8 
     name rtibia
     direction -0.342021 -0.939692 0   
     length 7.37807   
     axis 0 0 -20   XYZ
    dof rx
    limits (-10.0 170.0)
 end
 begin
     id 9 
     name rfoot
     direction -0.0239304 -0.0543852 0.998233   
     length 1.87018  
     axis -90 -7.62852e-016 -20   XYZ
    dof rx rz
    limits (-45.0 90.0)
           (-20.0 70.0)
  end
  begin
     id 10 
     name rtoes
     direction -1.53584e-011 -4.2242e-011 1   
     length 0.951568   
     axis -90 -7.62852e-016 -20   XYZ
    dof rx
    limits (-90.0 20.0)
  end
  begin
     id 11 
     name lowerback
     direction 0.00322089 0.999033 0.0438587   
     length 2.07568   
     axis 0 0 0   XYZ
    dof rx ry rz
    limits (-20.0 45.0)
           (-30.0 30.0)
           (-30.0 30.0)
  end
  begin
     id 12 
     name upperback
     direction -0.00321932 0.999732 -0.0229403   
     length 2.06253   
     axis 0 0 0   XYZ
    dof rx ry rz
    limits (-20.0 45.0)
           (-30.0 30.0)
           (-30.0 30.0)
  end
  begin
     id 13 
     name thorax
     direction -0.00537537 0.998955 -0.0453918   
     length 2.06975   
     axis 0 0 0   XYZ
    dof rx ry rz
    limits (-20.0 45.0)
           (-30.0 30.0)
           (-30.0 30.0)
  end
  begin
     id 14 
     name lowerneck
     direction -0.00013604 0.994111 0.108363   
     length 1.50836   
     axis 0 0 0   XYZ
    dof rx ry rz
    limits (-20.0 45.0)
           (-30.0 30.0)
           (-30.0 30.0)
  end
  begin
     id 15 
     name upperneck
     direction 0.0397262 0.983859 -0.174482   
     length 1.53037   
     axis 0 0 0   XYZ
    dof rx ry rz
    limits (-20.0 45.0)
           (-30.0 30.0)
           (-30.0 30.0)
  end
  begin
     id 16
     name head
     direction 0.0109991 0.997082 -0.0755378  
     length 1.56928  
     axis 0 0 0   XYZ
    dof rx ry rz
    limits (-20.0 45.0)
           (-30.0 30.0)
           (-30.0 30.0)
  end
  begin
     id 17 
     name lclavicle
     direction 0.964749 0.254 -0.068874  
     length 3.26503  
     axis 0 0 0   XYZ
    dof ry rz
    limits (-20.0 10.0)
           (0.0 20.0)
  end
  begin
     id 18 
     name lhumerus
     direction 1 -4.48941e-011 -2.05079e-027   
     length 5.68236   
     axis 180 -30 -90   XYZ
    dof rx ry rz
    limits (-60.0 90.0)
           (-90.0 90.0)
           (-90.0 90.0)
  end
  begin
     id 19
     name lradius
     direction 1 -4.48956e-011 6.2882e-027   
     length 3.17112   
     axis 180 -30 -90   XYZ
    dof rx
    limits (-10.0 170.0)
  end
  begin
     id 20
     name lwrist
     direction 1 -4.49014e-011 1.73219e-026   
     length 1.58556   
     axis -1.04724e-014 90 90   XYZ
    dof ry
    limits (-180.0 0.0)
 end
  begin
     id 21 
     name lhand
     direction 1 -4.49312e-011 3.46438e-026   
     length 0.632691   
     axis -2.21057e-014 90 90   XYZ
    dof rx rz
    limits (-90.0 90.0)
           (-45.0 45.0)
  end
  begin
     id 22 
     name lfingers
     direction 1 -4.48894e-011 6.92876e-026   
     length 0.510091   
     axis -4.42114e-014 90 90   XYZ
    dof rx
    limits (0.0 90.0)
  end
  begin
     id 23
     name lthumb
     direction 0.707107 -6.34705e-011 0.707107   
     length 0.732392   
     axis -90 45 2.85299e-015   XYZ
    dof rx rz
    limits (-45.0 45.0)
           (-45.0 45.0)
  end
  begin
     id 24 
     name rclavicle
     direction -0.954374 0.280496 -0.102435   
     length 3.25419  
     axis 0 0 0   XYZ 
    dof ry rz
    limits (-10.0 20.0)
           (-20.0 0.0)
  end
  begin
     id 25 
     name rhumerus
     direction -1 -4.48994e-011 -1.07204e-017  
     length 5.8712   
     axis 180 30 90   XYZ
    dof rx ry rz
    limits (-90.0 60.0)
           (-90.0 90.0)
           (-90.0 90.0)
  end
  begin
     id 26 
     name rradius
     direction -1 -4.48972e-011 5.89292e-027   
     length 3.37589   
     axis 180 30 90   XYZ
    dof rx
    limits (-10.0 170.0)
  end
  begin
     id 27 
     name rwrist
     direction -1 -4.48942e-011 1.73219e-026   
     length 1.68794   
     axis -1.04724e-014 -90 -90   XYZ
    dof ry
    limits (-180.0 0.0)
  end
  begin
     id 28
     name rhand
     direction -1 -4.48514e-011 3.46438e-026   
     length 0.603257   
     axis -2.21057e-014 -90 -90   XYZ
    dof rx rz
    limits (-90.0 90.0)
           (-45.0 45.0)
  end
  begin
     id 29
     name rfingers
     direction -1 -4.50028e-011 6.92876e-026   
     length 0.486362   
     axis -4.42114e-014 -90 -90   XYZ
    dof rx
    limits (0.0 90.0)
  end
  begin
     id 30
     name rthumb
     direction -0.707107 -6.34926e-011 0.707107   
     length 0.698321   
     axis -90 -45 -2.85299e-015   XYZ
    dof rx rz
    limits (-45.0 45.0)
           (-45.0 45.0)
  end
:hierarchy
  begin
    root lhipjoint rhipjoint lowerback
    lhipjoint lfemur
    lfemur ltibia
    ltibia lfoot
    lfoot ltoes
    rhipjoint rfemur
    rfemur rtibia
    rtibia rfoot
    rfoot rtoes
    lowerback upperback
    upperback thorax
    thorax lowerneck lclavicle rclavicle
    lowerneck upperneck
    upperneck head
    lclavicle lhumerus
    lhumerus lradius
    lradius lwrist
    lwrist lhand lthumb
    lhand lfingers
    rclavicle rhumerus
    rhumerus rradius
    rradius rwrist
    rwrist rhand rthumb
    rhand rfingers
  end

#!OML:ASF I:\Segmentation\Patient Classification 1\Patient 1\Session 1\Patient1.ASF
:FULLY-SPECIFIED
:DEGREES
2147
root -12.988 17.9521 0.864817 -45.89 -266.801 -1137.68
lowerback -10.965 -2.54807 -4.1448
upperback 1.50785 -2.94434 1.44739
thorax 8.06486 -1.65717 3.34847
lowerneck -13.569 0.893631 -3.67654
upperneck 13.5696 2.2402 -1.38313
head 6.33898 0.799979 0.368854
rclavicle 1.78906e-015 1.31198e-014
rhumerus -50.5111 10.2296 -88.4397
rradius 125.831
rwrist 16.3185
rhand -18.2738 29.3425
rfingers 7.12502
rthumb 8.00611 -0.485871
lclavicle 1.78906e-015 1.31198e-014
lhumerus -53.354 -8.06411 97.8191
lradius 104.022
lwrist 68.7623
lhand 1.9485 38.6711
lfingers 7.12502
lthumb 27.4553 66.6901
rfemur -31.6456 1.9269 11.5901
rtibia 42.8958
rfoot -9.49368 12.608
rtoes 40.0378
lfemur -26.1339 -1.2827 -21.6601
ltibia 39.0977
lfoot -24.4042 3.04039
ltoes -15.3766
2148
root -12.9765 17.9613 0.87364 -28.7673 -266.117 -1120.72
lowerback -11.1972 -2.43761 -4.13622
upperback 1.42894 -2.78386 1.3929
thorax 8.09405 -1.57559 3.30957
lowerneck -13.565 0.652318 -3.70713
upperneck 13.8316 1.89045 -1.14645
head 6.42278 0.644643 0.418349
rclavicle -1.59028e-015 9.93923e-015
rhumerus -50.0192 10.6238 -87.7495
rradius 127.028
rwrist 17.961
rhand -17.1582 29.6547
rfingers 7.12502
rthumb 9.08273 -0.129751
lclavicle -1.59028e-015 9.93923e-015
lhumerus -53.148 -8.34474 97.959
lradius 103.721
lwrist 68.4447
lhand 2.6128 39.5263
lfingers 7.12502
lthumb 28.0905 67.4428
rfemur -31.464 1.60172 11.9179
rtibia 42.8047
rfoot -10.3187 12.5277
rtoes 39.9646
lfemur -26.469 -1.67015 -21.2779
ltibia 39.1435
lfoot -23.9746 2.79426
ltoes -16.6685
2149
root -12.9624 17.9644 0.881955 -16.6623 -265.304 -1108.76
lowerback -11.4498 -2.32313 -4.09538
upperback 1.36518 -2.62978 1.44296
thorax 8.1561 -1.49932 3.36292
lowerneck -13.6462 0.329408 -3.76211
upperneck 14.1978 1.45175 -0.968146
head 6.5577 0.439024 0.445322
rclavicle -3.39425e-014 1.66979e-014
rhumerus -49.2775 11.37 -86.8548
rradius 128.152
rwrist 19.2624
rhand -15.9123 29.9458
rfingers 7.12502
rthumb 10.2847 0.217256
lclavicle -3.39425e-014 1.66979e-014
lhumerus -53.0086 -8.55275 98.3926
lradius 103.616
lwrist 68.7298
lhand 1.12969 39.8763
lfingers 7.12502
lthumb 26.672 68.017
rfemur -31.2626 1.35208 12.3401
rtibia 42.658
rfoot -11.1364 12.4491
rtoes 39.7551
lfemur -26.7757 -1.92789 -20.7897
ltibia 39.2172
lfoot -23.6676 2.1126
ltoes -16.707
2150
root -12.9497 17.9657 0.889767 -8.03463 -264.343 -1100.26
lowerback -11.7508 -2.09887 -3.93765
upperback 1.39035 -2.33401 1.36357
thorax 8.31699 -1.34905 3.23756
lowerneck -13.6705 -0.0373593 -3.66186
upperneck 14.3257 0.880301 -0.637846
head 6.60848 0.194178 0.481063
rclavicle 1.38155e-014 3.06128e-014
rhumerus -48.1024 11.9497 -85.8974
rradius 129.119
rwrist 20.3525
rhand -14.8192 29.7844
rfingers 7.12502
rthumb 11.3391 0.110983
lclavicle 1.38155e-014 3.06128e-014
lhumerus -52.9477 -9.3255 98.9012
lradius 104.058
lwrist 70.7852
lhand -3.50165 40.7345
lfingers 7.12502
lthumb 22.2324 69.4758
rfemur -31.052 1.10448 12.7912
rtibia 42.4762
rfoot -11.8927 12.3325
rtoes 39.7291
lfemur -27.0905 -2.12504 -20.2766
ltibia 39.2877
lfoot -23.2366 1.19191
ltoes -15.7255
2151
root -12.9387 17.9688 0.898397 -2.36685 -263.243 -1094.78
lowerback -12.0927 -1.83348 -3.81536
upperback 1.46113 -1.96948 1.18876
thorax 8.54507 -1.16658 3.04433
lowerneck -13.7038 -0.426724 -3.35387
upperneck 14.2629 0.23154 -0.332749
head 6.60208 -0.0768609 0.466348
rclavicle -6.55989e-015 -2.66371e-014
rhumerus -46.71 12.4347 -84.8861
rradius 130.108
rwrist 21.1019
rhand -13.8426 29.3729
rfingers 7.12502
rthumb 12.2809 -0.246446
lclavicle -6.55989e-015 -2.66371e-014
lhumerus -52.6442 -10.3116 99.1829
lradius 104.29
lwrist 72.4802
lhand -6.77804 41.9233
lfingers 7.12502
lthumb 19.0843 71.007
rfemur -30.8818 0.859108 13.1732
rtibia 42.272
rfoot -12.6053 12.2311
rtoes 39.9902
lfemur -27.49 -2.33791 -19.8443
ltibia 39.3352
lfoot -22.6965 0.601828
ltoes -16.1806
2152
root -12.9273 17.9728 0.906095 1.09495 -262.082 -1091.49
lowerback -12.5002 -1.69975 -3.96865
upperback 1.54176 -1.75082 1.18981
thorax 8.85421 -1.07499 3.16847
lowerneck -13.4651 -0.742224 -3.22985
upperneck 14.0451 -0.257274 -0.210471
head 6.49813 -0.293233 0.438659
rclavicle 3.18055e-015 1.94809e-014
rhumerus -45.1493 13.4865 -83.5525
rradius 131.101
rwrist 21.4649
rhand -13.2119 28.8235
rfingers 7.12502
rthumb 12.889 -0.758462
lclavicle 3.18055e-015 1.94809e-014
lhumerus -52.2242 -10.7258 99.433
lradius 104.194
lwrist 72.779
lhand -6.50975 42.0872
lfingers 7.12502
lthumb 19.3423 71.1452
rfemur -30.6637 0.61002 13.446
rtibia 42.0579
rfoot -13.3523 12.1762
rtoes 40.2596
lfemur -27.8384 -2.65999 -19.5119
ltibia 39.3608
lfoot -22.3045 0.363444
ltoes -17.8859
